<?xml version="1.0" encoding="utf-8"?>
<!-- Generator: Adobe Illustrator 24.3.0, SVG Export Plug-In . SVG Version: 6.00 Build 0)  -->
<svg version="1.1" id="Layer_1" xmlns="http://www.w3.org/2000/svg" xmlns:xlink="http://www.w3.org/1999/xlink" x="0px" y="0px"
	 viewBox="0 0 512 512" style="enable-background:new 0 0 512 512;" xml:space="preserve">
<style type="text/css">
	.st0{fill:#FFFFFF;}
</style>
<path class="st0" d="M426.7,277.3h-26.1l22.4-22.4c16.1-16.1,25-37.5,25-60.4s-8.9-44.2-25-60.3L377.7,89
	c-32.2-32.3-88.4-32.2-120.7,0l-22.4,22.4V85.3c0-47.1-38.3-85.3-85.3-85.3h-64C38.3,0,0,38.3,0,85.3v309.3
	C0,459.4,52.6,512,117.3,512h309.3c47.1,0,85.3-38.3,85.3-85.3v-64C512,315.6,473.7,277.3,426.7,277.3z M287.2,119.2
	c16.1-16.1,44.2-16.1,60.4,0l45.2,45.2c8.1,8.1,12.5,18.8,12.5,30.2c0,11.4-4.4,22.1-12.5,30.2L234.7,382.9V171.7L287.2,119.2
	L287.2,119.2z M42.7,170.7H192V256H42.7L42.7,170.7L42.7,170.7z M85.3,42.7h64c23.5,0,42.7,19.1,42.7,42.7V128H42.7V85.3
	C42.7,61.8,61.8,42.7,85.3,42.7L85.3,42.7z M42.7,394.7v-96H192v96c0,41.2-33.5,74.7-74.7,74.7S42.7,435.8,42.7,394.7z M469.3,426.7
	c0,23.5-19.1,42.7-42.7,42.7H208.6L357.9,320h68.7c23.5,0,42.7,19.1,42.7,42.7V426.7z M117.3,426.7c-17.7,0-32-14.3-32-32
	c0-17.7,14.3-32,32-32s32,14.3,32,32C149.3,412.3,135,426.7,117.3,426.7z"/>
</svg>
