<?xml version="1.0" encoding="utf-8"?>
<!-- Generator: Adobe Illustrator 24.3.0, SVG Export Plug-In . SVG Version: 6.00 Build 0)  -->
<svg version="1.1" id="Layer_1" xmlns="http://www.w3.org/2000/svg" xmlns:xlink="http://www.w3.org/1999/xlink" x="0px" y="0px"
	 viewBox="0 0 512 512" style="enable-background:new 0 0 512 512;" xml:space="preserve">
<style type="text/css">
	.st0{fill:#FFFFFF;}
</style>
<path class="st0" d="M490.7,469.3h-384c-35.3,0-64-28.7-64-64v-384C42.7,9.6,33.1,0,21.3,0S0,9.6,0,21.3v384
	C0.1,464.2,47.8,511.9,106.7,512h384c11.8,0,21.3-9.6,21.3-21.3C512,478.9,502.4,469.3,490.7,469.3z"/>
<path class="st0" d="M128,426.7c11.8,0,21.3-9.6,21.3-21.3V256c0-11.8-9.6-21.3-21.3-21.3s-21.3,9.6-21.3,21.3v149.3
	C106.7,417.1,116.2,426.7,128,426.7z"/>
<path class="st0" d="M213.3,213.3v192c0,11.8,9.6,21.3,21.3,21.3s21.3-9.6,21.3-21.3v-192c0-11.8-9.6-21.3-21.3-21.3
	S213.3,201.6,213.3,213.3z"/>
<path class="st0" d="M320,277.3v128c0,11.8,9.6,21.3,21.3,21.3s21.3-9.6,21.3-21.3v-128c0-11.8-9.6-21.3-21.3-21.3
	S320,265.6,320,277.3z"/>
<path class="st0" d="M426.7,192v213.3c0,11.8,9.6,21.3,21.3,21.3c11.8,0,21.3-9.6,21.3-21.3V192c0-11.8-9.6-21.3-21.3-21.3
	C436.2,170.7,426.7,180.2,426.7,192z"/>
<path class="st0" d="M128,192c5.7,0,11.1-2.2,15.1-6.3l76.5-76.5c8.4-8,21.7-8,30.2,0l46.3,46.3c25,25,65.5,25,90.5,0L505.7,36.4
	c8.2-8.5,8-22-0.5-30.2c-8.3-8-21.4-8-29.6,0L356.4,125.4c-8.3,8.3-21.8,8.3-30.2,0l-46.3-46.3c-25-25-65.5-25-90.5,0l-76.5,76.5
	c-8.3,8.3-8.3,21.8,0,30.2C116.9,189.8,122.3,192,128,192z"/>
</svg>
