<?xml version="1.0" encoding="utf-8"?>
<!-- Generator: Adobe Illustrator 24.3.0, SVG Export Plug-In . SVG Version: 6.00 Build 0)  -->
<svg version="1.1" id="Layer_1" xmlns="http://www.w3.org/2000/svg" xmlns:xlink="http://www.w3.org/1999/xlink" x="0px" y="0px"
	 viewBox="0 0 24 24" style="enable-background:new 0 0 24 24;" xml:space="preserve">
<style type="text/css">
	.st0{fill:#FFFFFF;}
</style>
<path class="st0" d="M8.4,13.6l-0.3,3.7c0,0.4-0.3,0.8-0.7,0.8c-0.2,0-0.5-0.2-0.6-0.4L6,16l-0.8,1.6C5,17.8,4.8,18,4.5,18
	c-0.4,0-0.7-0.3-0.7-0.8l-0.3-3.7C3.5,13.3,3.7,13,4,13c0.3,0,0.5,0.2,0.5,0.5l0.2,2.7l0.8-1.4c0.2-0.4,0.7-0.4,0.9,0l0.8,1.4
	l0.2-2.7c0-0.3,0.2-0.5,0.5-0.5h0C8.2,13,8.4,13.3,8.4,13.6z M13.9,13h-0.5l-0.2,3.2l-0.8-1.4c-0.2-0.4-0.7-0.4-0.9,0l-0.8,1.4
	l-0.2-2.7c0-0.3-0.2-0.5-0.5-0.5c-0.3,0-0.5,0.3-0.5,0.6l0.3,3.7c0,0.4,0.3,0.8,0.7,0.8c0.2,0,0.5-0.2,0.6-0.4L12,16l0.8,1.6
	c0.1,0.2,0.4,0.4,0.6,0.4c0.4,0,0.7-0.3,0.7-0.8l0.3-3.7C14.4,13.3,14.2,13,13.9,13z M19.9,13L19.9,13c-0.3,0-0.5,0.2-0.5,0.5
	l-0.2,2.7l-0.8-1.4c-0.2-0.4-0.7-0.4-0.9,0l-0.8,1.4l-0.2-2.7c0-0.3-0.2-0.5-0.5-0.5c-0.3,0-0.5,0.3-0.5,0.6l0.3,3.7
	c0,0.4,0.3,0.8,0.7,0.8c0.2,0,0.5-0.2,0.6-0.4L18,16l0.8,1.6c0.1,0.2,0.4,0.4,0.6,0.4c0.4,0,0.7-0.3,0.7-0.8l0.3-3.7
	C20.4,13.3,20.2,13,19.9,13z M4.5,7C5.3,7,6,6.3,6,5.5S5.3,4,4.5,4S3,4.7,3,5.5S3.7,7,4.5,7z M8.5,7C9.3,7,10,6.3,10,5.5
	S9.3,4,8.5,4S7,4.7,7,5.5S7.7,7,8.5,7z M24,6v12c0,2.8-2.2,5-5,5H5c-2.8,0-5-2.2-5-5V6c0-2.8,2.2-5,5-5h14C21.8,1,24,3.2,24,6z M2,6
	v2h20V6c0-1.7-1.3-3-3-3H5C3.3,3,2,4.3,2,6z M22,18v-8H2v8c0,1.7,1.3,3,3,3h14C20.7,21,22,19.7,22,18z"/>
</svg>
