<?xml version="1.0" encoding="utf-8"?>
<!-- Generator: Adobe Illustrator 24.3.0, SVG Export Plug-In . SVG Version: 6.00 Build 0)  -->
<svg version="1.1" id="Layer_1" xmlns="http://www.w3.org/2000/svg" xmlns:xlink="http://www.w3.org/1999/xlink" x="0px" y="0px"
	 viewBox="0 0 100 100" style="enable-background:new 0 0 100 100;" xml:space="preserve">
<style type="text/css">
	.st0{fill:url(#SVGID_1_);}
	.st1{fill:#FFFFFF;}
</style>
<g>
	<linearGradient id="SVGID_1_" gradientUnits="userSpaceOnUse" x1="2.2561" y1="47.3708" x2="97.7439" y2="47.3708">
		<stop  offset="3.409785e-07" style="stop-color:#8B13FD"/>
		<stop  offset="1" style="stop-color:#7011F5"/>
	</linearGradient>
	<path class="st0" d="M97.74,44.93c-1.5-0.37-3.62-1.11-5.51-2.8C87.6,38,87.3,30.9,87.15,27.29c-0.21-4.98,0.68-9.15-1.3-13.17
		c-0.49-1-1.16-1.97-2.15-2.79c-1.94-1.59-4.23-1.83-5.54-1.9c-4.04-0.22-26.52-0.3-57.33,0c-2.43,0.84-5.57,2.41-7.12,5.48
		c-0.87,1.73-0.78,3.01-0.85,6.11C12.58,33.86,10.4,38.15,9.8,39.25c-1.17,2.16-2.45,3.41-3.65,4.24c-1.51,1.04-2.98,1.49-3.9,1.7
		c0,1.53,0,3.05,0,4.58c0.88,0.11,2.21,0.39,3.56,1.19c3.51,2.06,4.66,6.09,5.94,10.77c1.12,4.11,1.39,7.46,1.44,8.23
		c0.45,6.04-0.72,7.68,0.51,10.26c0.85,1.78,2.81,3.94,7.8,5.31c18.97,0,37.94,0,56.91,0c1.27,0,4.3-0.58,6.45-2.93
		c0.98-1.08,1.5-2.26,1.89-3.51c1.37-4.38,0.53-7.43,0.49-11.08c-0.06-5.74,1.85-13.82,7.15-16.73c1.27-0.7,2.5-0.97,3.36-1.08
		C97.74,48.43,97.74,46.68,97.74,44.93z"/>
	<g>
		<path class="st1" d="M35.37,67.85c0-13.61,0-27.14,0-40.72c0.14-0.01,0.27-0.04,0.41-0.04c5.51,0,11.01-0.01,16.52,0.01
			c2.13,0.01,4.2,0.37,6.16,1.25c1.97,0.88,3.58,2.19,4.66,4.08c0.83,1.46,1.23,3.03,1.23,4.71c-0.01,3.43-1.51,6.05-4.35,7.94
			c-0.78,0.52-1.65,0.86-2.56,1.08c-0.1,0.02-0.19,0.05-0.35,0.1c0.45,0.09,0.83,0.15,1.21,0.23c2.31,0.52,4.31,1.57,5.85,3.4
			c1.21,1.43,1.92,3.09,2.15,4.95c0.26,2.14,0.02,4.22-0.85,6.2c-1,2.28-2.69,3.91-4.88,5.04c-1.47,0.76-3.04,1.21-4.67,1.48
			c-1.39,0.23-2.79,0.3-4.2,0.3c-5.27,0-10.54,0-15.81,0C35.73,67.85,35.57,67.85,35.37,67.85z M42.08,62.45c0.16,0,0.29,0,0.42,0
			c2.6,0,5.2-0.01,7.8,0c0.97,0,1.94-0.02,2.9-0.15c1.03-0.14,2.03-0.38,2.97-0.83c1.33-0.63,2.35-1.57,2.91-2.95
			c0.41-1,0.5-2.04,0.46-3.11c-0.03-0.7-0.16-1.38-0.42-2.03c-0.59-1.48-1.69-2.43-3.11-3.04c-1.4-0.6-2.88-0.87-4.39-0.89
			c-3.06-0.04-6.12-0.03-9.17-0.04c-0.11,0-0.22,0.02-0.35,0.03C42.08,53.77,42.08,58.08,42.08,62.45z M42.08,32.52
			c0,3.95,0,7.86,0,11.81c0.17,0,0.32,0,0.47,0c2.06,0,4.13-0.01,6.19,0c0.93,0,1.86-0.02,2.79-0.15c1.05-0.15,2.07-0.41,3.03-0.88
			c1.19-0.59,2.13-1.43,2.64-2.67c0.64-1.56,0.66-3.15,0.04-4.72c-0.55-1.41-1.64-2.27-3.03-2.8c-1.13-0.43-2.31-0.58-3.51-0.59
			c-2.75-0.02-5.49-0.01-8.24-0.01C42.34,32.5,42.23,32.51,42.08,32.52z"/>
	</g>
</g>
</svg>
