<?xml version="1.0" encoding="utf-8"?>
<!-- Generator: Adobe Illustrator 24.3.0, SVG Export Plug-In . SVG Version: 6.00 Build 0)  -->
<svg version="1.1" id="Layer_1" xmlns="http://www.w3.org/2000/svg" xmlns:xlink="http://www.w3.org/1999/xlink" x="0px" y="0px"
	 viewBox="0 0 100 100" style="enable-background:new 0 0 100 100;" xml:space="preserve">
<style type="text/css">
	.st0{fill:#2196F3;}
	.st1{fill:#FFFFFF;}
</style>
<g>
	<path class="st0" d="M86.83,5.18c0.93,0,1.67,0.81,1.58,1.74c-0.46,5.18-0.91,10.29-1.36,15.41c-0.54,6.11-1.06,12.22-1.6,18.32
		c-0.71,7.94-1.46,15.88-2.17,23.81c-0.62,6.91-1.22,13.81-1.78,20.73c-0.09,1.1-0.41,1.6-1.55,1.92
		c-9.8,2.69-19.58,5.47-29.38,8.18c-1.08,0.3-2.23,0.3-3.32,0c-9.89-2.73-19.76-5.53-29.66-8.26c-0.9-0.25-1.19-0.67-1.26-1.55
		c-1.04-12.17-2.1-24.34-3.16-36.51c-0.94-10.67-1.88-21.33-2.84-32c-0.3-3.33-0.62-6.65-0.94-10.04C9.3,6,10.04,5.18,10.98,5.18
		L86.83,5.18z M28.44,56.77c-0.78,0-1.44,0.65-1.38,1.43c0,0,0,0.01,0,0.01c0.36,4.06,0.76,8.11,1.08,12.17
		c0.11,1.43,1.11,2.63,2.49,3.01c5.87,1.59,11.72,3.22,17.59,4.83c0.35,0.09,0.75,0.18,1.08,0.09c6.1-1.67,12.2-3.35,18.29-5.07
		c1.01-0.29,1.92-1.37,2.02-2.42c0.59-6.02,1.13-12.04,1.67-18.07c0.62-6.95,1.23-13.91,1.84-20.86c0.24-2.75,0.47-5.49,0.71-8.27
		c0.08-0.93-0.65-1.73-1.58-1.73c-7.73,0-39.04,0-46.72,0c-0.92,0-1.65,0.78-1.59,1.7l0.41,6.13c0.06,0.84,0.75,1.48,1.59,1.48
		h35.54c0.93,0,1.66,0.79,1.59,1.71l-0.52,6.89c-0.06,0.82-0.75,1.46-1.57,1.47c-11.31,0.14-22.5,0.29-33.77,0.43
		c-0.94,0.01-1.67,0.83-1.57,1.76c0.23,2.13,0.45,4.16,0.6,6.19c0.09,1.16,0.45,1.58,1.7,1.57c10.62-0.09,21.24-0.09,31.86-0.12
		c0.01,0,0.01,0,0.02,0c0.95,0,1.69,0.83,1.58,1.77c-0.42,3.92-0.82,7.7-1.29,11.48c-0.04,0.34-0.62,0.78-1.03,0.89
		c-3.17,0.9-6.35,1.76-9.55,2.58c-0.47,0.12-1.02,0.07-1.49-0.06c-2.96-0.76-5.9-1.65-8.88-2.33c-1.22-0.28-1.55-0.85-1.62-2
		c-0.1-1.75-0.29-3.5-0.46-5.25c-0.08-0.81-0.76-1.43-1.58-1.43H28.44z"/>
	<path class="st1" d="M27.06,56.77c3.29,0,6.48,0,9.89,0c0.21,2.22,0.48,4.45,0.61,6.68c0.06,1.15,0.39,1.72,1.62,2
		c2.98,0.68,5.92,1.56,8.88,2.33c0.47,0.12,1.03,0.18,1.49,0.06c3.19-0.82,6.38-1.67,9.55-2.58c0.41-0.12,0.99-0.55,1.03-0.89
		c0.53-4.34,0.98-8.69,1.48-13.25c-0.69,0-1.24,0-1.79,0c-10.62,0.03-21.24,0.04-31.86,0.12c-1.26,0.01-1.61-0.41-1.7-1.57
		c-0.19-2.58-0.5-5.15-0.79-7.93c12.35-0.16,24.58-0.31,36.98-0.47c0.25-3.37,0.5-6.64,0.76-10.06c-12.93,0-25.74,0-38.75,0
		c-0.21-3.15-0.42-6.19-0.63-9.32c16.72,0,33.36,0,50.15,0c-0.29,3.36-0.57,6.68-0.86,10c-0.61,6.95-1.22,13.91-1.84,20.86
		c-0.57,6.39-1.15,12.78-1.77,19.16c-0.04,0.38-0.5,0.92-0.86,1.03c-6.43,1.83-12.88,3.6-19.33,5.37c-0.33,0.09-0.74,0-1.08-0.09
		C42,76.52,35.78,74.78,29.55,73.1c-0.93-0.25-1.25-0.67-1.32-1.63c-0.34-4.42-0.77-8.83-1.16-13.25
		C27.03,57.76,27.06,57.3,27.06,56.77z"/>
</g>
</svg>
