<?xml version="1.0" encoding="utf-8"?>
<!-- Generator: Adobe Illustrator 24.3.0, SVG Export Plug-In . SVG Version: 6.00 Build 0)  -->
<svg version="1.1" id="Layer_1" xmlns="http://www.w3.org/2000/svg" xmlns:xlink="http://www.w3.org/1999/xlink" x="0px" y="0px"
	 viewBox="0 0 100 100" style="enable-background:new 0 0 100 100;" xml:space="preserve">
<style type="text/css">
	.st0{fill:#FC490B;}
	.st1{fill:#FFFFFF;}
</style>
<g>
	<path class="st0" d="M50,2.87c12.48,0,24.95,0,37.43,0c3.04,0,3.96,1.06,3.73,4.06c-0.56,7.22-1.04,14.44-1.61,21.66
		c-0.73,9.28-1.52,18.56-2.26,27.84c-0.45,5.7-0.83,11.4-1.26,17.1c-0.28,3.63-0.58,7.27-0.89,10.9c-0.14,1.61-1.22,2.34-2.65,2.79
		c-7.79,2.45-15.58,4.93-23.36,7.4c-2.44,0.77-4.85,1.66-7.33,2.28c-1.12,0.28-2.47,0.34-3.55,0.01
		c-10.16-3.14-20.28-6.38-30.41-9.59c-2.4-0.76-2.79-1.34-3-3.9c-0.75-9.43-1.55-18.85-2.29-28.28c-0.63-7.96-1.2-15.92-1.81-23.87
		C10.1,23.15,9.5,15.04,8.85,6.94c-0.24-3.01,0.68-4.07,3.72-4.07C25.04,2.87,37.52,2.87,50,2.87z M26.48,56.68
		c-0.04,0.29-0.11,0.48-0.1,0.66c0.36,4.96,0.76,9.92,1.09,14.88c0.07,1.01,0.65,1.29,1.46,1.55c6.57,2.07,13.12,4.19,19.71,6.21
		c0.83,0.25,1.86,0.26,2.69,0.01c6.58-2.02,13.13-4.16,19.71-6.2c1.09-0.34,1.44-0.89,1.52-1.98c0.62-8.45,1.3-16.89,1.95-25.33
		c0.13-1.65,0.2-3.29,0.31-5.13c-0.85,0-1.53,0-2.21,0c-10.94,0-21.89,0-32.83,0c-2.84,0-2.86,0-3.19-2.83
		c-0.31-2.66-0.56-5.34-0.84-8.12c0.76,0,1.29,0,1.83,0c6.31,0,12.62,0,18.93,0c5.97,0,11.93-0.02,17.9,0.01
		c0.95,0,1.42-0.2,1.47-1.28c0.11-2.46,0.29-4.92,0.58-7.36c0.18-1.49-0.37-1.82-1.77-1.82c-16.47,0.04-32.93,0.03-49.4,0.03
		c-0.53,0-1.06,0.07-1.68,0.11c0,0.72-0.04,1.3,0.01,1.88c0.28,3.78,0.58,7.56,0.88,11.34c0.45,5.65,0.98,11.29,1.34,16.94
		c0.1,1.58,0.79,1.74,2.1,1.74c11.14-0.04,22.28-0.02,33.43-0.02c0.58,0,1.16,0,1.72,0c0.08,0.3,0.15,0.44,0.14,0.57
		c-0.27,3.78-0.53,7.57-0.88,11.34c-0.04,0.39-0.63,0.94-1.07,1.06c-3.35,0.98-6.72,1.89-10.11,2.76c-0.58,0.15-1.27,0.09-1.87-0.06
		c-3.19-0.81-6.36-1.73-9.56-2.5c-1.18-0.28-1.59-0.77-1.52-2c0.11-2.14,0.03-4.29,0.03-6.46C34.16,56.68,30.34,56.68,26.48,56.68z"
		/>
	<path class="st1" d="M26.48,56.68c3.86,0,7.68,0,11.75,0c0,2.16,0.08,4.32-0.03,6.46c-0.06,1.23,0.35,1.72,1.52,2
		c3.2,0.77,6.37,1.69,9.56,2.5c0.59,0.15,1.29,0.21,1.87,0.06c3.38-0.87,6.75-1.78,10.11-2.76c0.44-0.13,1.03-0.67,1.07-1.06
		c0.36-3.77,0.61-7.56,0.88-11.34c0.01-0.13-0.06-0.27-0.14-0.57c-0.56,0-1.14,0-1.72,0c-11.14,0-22.28-0.02-33.43,0.02
		c-1.32,0-2-0.15-2.1-1.74c-0.36-5.65-0.88-11.29-1.34-16.94c-0.3-3.78-0.6-7.56-0.88-11.34c-0.04-0.58-0.01-1.16-0.01-1.88
		c0.62-0.04,1.15-0.11,1.68-0.11c16.47-0.01,32.93,0.01,49.4-0.03c1.4,0,1.95,0.33,1.77,1.82c-0.29,2.44-0.47,4.9-0.58,7.36
		c-0.05,1.08-0.51,1.29-1.47,1.28c-5.97-0.03-11.93-0.01-17.9-0.01c-6.31,0-12.62,0-18.93,0c-0.54,0-1.07,0-1.83,0
		c0.29,2.79,0.53,5.46,0.84,8.12c0.33,2.83,0.36,2.83,3.19,2.83c10.94,0,21.89,0,32.83,0c0.68,0,1.36,0,2.21,0
		c-0.11,1.84-0.18,3.49-0.31,5.13c-0.65,8.44-1.33,16.89-1.95,25.33c-0.08,1.09-0.43,1.64-1.52,1.98
		c-6.58,2.03-13.13,4.17-19.71,6.2c-0.82,0.25-1.86,0.24-2.69-0.01c-6.58-2.02-13.14-4.14-19.71-6.21
		c-0.81-0.26-1.39-0.54-1.46-1.55c-0.33-4.96-0.73-9.92-1.09-14.88C26.37,57.15,26.43,56.96,26.48,56.68z"/>
</g>
</svg>
