<?xml version="1.0" encoding="utf-8"?>
<!-- Generator: Adobe Illustrator 24.3.0, SVG Export Plug-In . SVG Version: 6.00 Build 0)  -->
<svg version="1.1" id="Layer_1" xmlns="http://www.w3.org/2000/svg" xmlns:xlink="http://www.w3.org/1999/xlink" x="0px" y="0px"
	 viewBox="0 0 100 100" style="enable-background:new 0 0 100 100;" xml:space="preserve">
<style type="text/css">
	.st0{fill:#FFDF00;}
</style>
<g>
	<rect x="5.06" y="5.06" class="st0" width="89.88" height="89.88"/>
	<g>
		<path d="M85.61,52.88c-0.55,0.38-0.96,0.68-1.38,0.95c-1.73,1.11-3.46,2.21-5.27,3.36c-0.34-0.45-0.63-0.81-0.88-1.18
			c-1.29-1.91-3.12-2.6-5.35-2.33c-1.41,0.17-2.53,0.85-2.95,2.24c-0.43,1.42-0.33,2.87,0.9,3.87c0.97,0.78,2.1,1.38,3.22,1.95
			c2.83,1.44,5.8,2.63,8.53,4.25c6.68,3.96,6.58,11.68,4.42,15.87c-2.06,3.98-5.69,5.71-9.92,6.24c-6.09,0.76-11.68-0.35-16.09-5.04
			c-2.95-3.14-2.91-3.28,0.72-5.38c1.25-0.72,2.5-1.44,3.84-2.21c0.47,0.61,0.87,1.16,1.3,1.7c2.47,3.08,5.69,3.96,9.43,3.08
			c1.7-0.4,2.98-1.46,3.24-3.3c0.24-1.7-0.55-3.07-2.01-3.87c-1.88-1.03-3.88-1.85-5.8-2.81c-1.75-0.88-3.57-1.68-5.19-2.77
			c-4.56-3.05-6.39-8.03-5.01-13.24c1.23-4.67,5.28-7.84,10.71-8.25c5.18-0.39,9.66,0.96,12.73,5.5
			C85.05,51.91,85.27,52.32,85.61,52.88z"/>
		<path d="M35.5,76.21c0.63,0.91,1.14,1.74,1.75,2.5c1.4,1.75,3.97,2.37,5.97,1.43c1.79-0.85,2.14-2.51,2.14-4.25
			c0.02-8.67,0.01-17.34,0.02-26.02c0-0.8-0.08-1.61,0.04-2.38c0.06-0.36,0.52-0.92,0.81-0.93c2.52-0.07,5.05-0.04,7.64-0.04
			c0.09,0.39,0.22,0.7,0.22,1c-0.02,9.84,0.1,19.69-0.13,29.53c-0.15,6.42-3.95,10.25-10.3,11.15c-6.14,0.87-11.5-1.52-14.43-6.32
			c-0.67-1.1-0.56-1.65,0.59-2.27C31.74,78.57,33.58,77.37,35.5,76.21z"/>
	</g>
</g>
</svg>
