<?xml version="1.0" encoding="utf-8"?>
<!-- Generator: Adobe Illustrator 24.3.0, SVG Export Plug-In . SVG Version: 6.00 Build 0)  -->
<svg version="1.1" id="Layer_1" xmlns="http://www.w3.org/2000/svg" xmlns:xlink="http://www.w3.org/1999/xlink" x="0px" y="0px"
	 viewBox="0 0 100 100" style="enable-background:new 0 0 100 100;" xml:space="preserve">
<style type="text/css">
	.st0{fill:#5ED3F3;}
</style>
<g>
	<path class="st0" d="M18.55,47.83c-1.42-2.1-3.08-4.38-4.55-6.77C12.5,38.6,11.52,35.9,11.22,33c-0.56-5.44,2.61-9.83,8.22-11.46
		c4.34-1.26,8.73-1.01,13.13-0.39c0.63,0.09,1.25,0.2,1.82,0.3c1.09-2.37,2.08-4.7,3.23-6.96c1.38-2.69,3.18-5.1,5.56-7.02
		c4.31-3.47,9.48-3.46,13.75,0.06c3.89,3.2,6.06,7.54,7.88,12.1c0.23,0.58,0.45,1.18,0.58,1.54c3.63-0.16,7.11-0.43,10.59-0.41
		c1.7,0.01,3.45,0.4,5.07,0.93c6.31,2.08,9.04,7.34,7.3,13.78c-1.12,4.17-3.39,7.71-6.03,11.05c-0.37,0.46-0.74,0.92-1.18,1.47
		c0.71,0.88,1.44,1.74,2.13,2.62c2.56,3.28,4.78,6.75,5.85,10.85c1.83,7-1.65,12.65-8.76,14.2c-4.53,0.98-9.05,0.69-13.55-0.17
		c-0.91-0.17-1.26-0.01-1.57,0.88c-1.44,4.1-3.28,8-6.2,11.29c-1.84,2.08-3.98,3.74-6.75,4.39c-3.51,0.82-6.57-0.22-9.27-2.46
		c-3.8-3.16-5.94-7.41-7.73-11.88c-0.96-2.39-0.93-2.39-3.6-1.96c-3.98,0.65-7.98,0.83-11.94-0.1c-4.34-1.01-7.75-3.25-8.98-7.8
		c-0.93-3.46-0.19-6.86,1.46-9.9C14.1,54.52,16.38,51.28,18.55,47.83z M64.2,48.61c0.08,0,0.17,0,0.25,0c-0.13-2.5-0.19-5-0.42-7.49
		c-0.06-0.6-0.53-1.38-1.05-1.69c-3.94-2.34-7.93-4.61-11.95-6.82c-0.52-0.29-1.47-0.3-1.99-0.02c-4.1,2.25-8.15,4.59-12.17,6.96
		c-0.42,0.25-0.85,0.89-0.85,1.36c-0.1,4.86-0.14,9.72-0.11,14.58c0,0.46,0.49,1.08,0.93,1.34c4.05,2.42,8.15,4.77,12.21,7.18
		c0.73,0.43,1.31,0.37,2.01-0.04c4.03-2.38,8.09-4.69,12.09-7.12c0.53-0.32,0.98-1.2,1.01-1.85C64.28,52.89,64.2,50.75,64.2,48.61z
		 M67.19,70.4c1.16,0.18,2.22,0.4,3.3,0.52c3.36,0.36,6.73,0.54,9.99-0.64c3.2-1.16,4.56-3.43,3.86-6.72
		c-0.97-4.61-3.75-8.19-6.71-11.66c-2.32,1.97-4.48,3.93-6.78,5.7c-1.26,0.97-2.02,1.93-2.18,3.61
		C68.37,64.22,67.72,67.2,67.19,70.4z M22.37,51.94c-2.9,3.38-5.64,6.94-6.65,11.48c-0.75,3.34,0.58,5.78,3.85,6.83
		c1.62,0.52,3.38,0.86,5.07,0.87c2.73,0.01,5.47-0.33,8.11-0.52c0.07-0.48,0.11-0.58,0.1-0.66c-0.57-3.45-1.14-6.9-1.74-10.35
		c-0.05-0.28-0.23-0.6-0.44-0.78C27.94,56.53,25.2,54.28,22.37,51.94z M39.46,74.24c1.44,3.95,3.06,7.85,6.19,10.88
		c2.91,2.81,5.85,2.8,8.76-0.03c3.11-3.03,4.73-6.92,6.16-10.85c-3.43-1.32-6.76-2.62-10.12-3.88c-0.3-0.11-0.72-0.05-1.03,0.07
		C46.15,71.65,42.89,72.92,39.46,74.24z M60.41,22.55c-0.36-0.9-0.69-1.84-1.09-2.74c-1.29-2.93-2.78-5.74-5.19-7.93
		c-2.4-2.18-4.9-2.48-7.3-0.7c-3.87,2.87-5.57,7.13-7.2,11.36c3.4,1.27,6.62,2.49,9.86,3.67c0.33,0.12,0.79,0.1,1.13-0.02
		C53.81,25.03,57,23.83,60.41,22.55z M32.92,26.59c-2.71-1.06-8.71-1.11-12-0.12c-3.74,1.13-5.21,3.46-4.38,7.24
		c0.9,4.11,3.34,7.38,5.91,10.49c2.84-2.28,5.57-4.47,8.28-6.68c0.24-0.2,0.39-0.59,0.45-0.92C31.77,33.3,32.33,29.99,32.92,26.59z
		 M67.06,26.24c0.64,3.75,1.21,7.1,1.81,10.45c0.05,0.29,0.19,0.63,0.4,0.8c2.74,2.23,5.5,4.44,8.33,6.71
		c2.09-2.49,4.03-5.13,5.2-8.23c0.44-1.17,0.75-2.45,0.85-3.69c0.21-2.58-0.79-4.33-3.21-5.27c-1.63-0.63-3.41-1.1-5.15-1.15
		C72.54,25.77,69.79,26.09,67.06,26.24z M37.94,69.2c2.05-0.7,3.84-1.31,5.89-2.01c-2.45-1.42-4.64-2.69-7.13-4.13
		C37.16,65.29,37.53,67.14,37.94,69.2z M62.09,69.2c0.41-2.08,0.79-3.96,1.22-6.15c-2.5,1.45-4.67,2.72-7.1,4.14
		C58.25,67.89,60.04,68.5,62.09,69.2z M30.53,52.21c0-2.82,0-5.28,0-8.07c-1.61,1.41-3.01,2.64-4.52,3.97
		C27.53,49.48,28.89,50.72,30.53,52.21z M69.51,44.15c0,2.78,0,5.24,0,8.04c1.62-1.47,3.02-2.74,4.53-4.11
		C72.46,46.72,71.08,45.52,69.51,44.15z M36.84,33.35c2.38-1.37,4.48-2.57,6.86-3.93c-2.06-0.67-3.79-1.23-5.63-1.83
		C37.66,29.48,37.29,31.24,36.84,33.35z M63.2,33.35c-0.46-2.1-0.86-3.9-1.27-5.79c-1.94,0.65-3.63,1.22-5.58,1.87
		C58.72,30.79,60.79,31.97,63.2,33.35z"/>
	<path class="st0" d="M50,40.7c4.33-0.01,7.93,3.56,7.95,7.87c0.02,4.39-3.59,8-7.98,7.98c-4.32-0.02-7.89-3.62-7.88-7.94
		C42.09,44.28,45.67,40.7,50,40.7z"/>
</g>
</svg>
